<?xml version="1.0" encoding="UTF-8"?>
<svg xmlns="http://www.w3.org/2000/svg" xmlns:xlink="http://www.w3.org/1999/xlink" width="375pt" height="374.999991pt" viewBox="0 0 375 374.999991" version="1.2">
<defs>
<clipPath id="clip1">
  <path d="M 53.75 37.5 L 320.75 37.5 L 320.75 304.5 L 53.75 304.5 Z M 53.75 37.5 "/>
</clipPath>
<clipPath id="clip2">
  <path d="M 134 93.785156 L 241 93.785156 L 241 244 L 134 244 Z M 134 93.785156 "/>
</clipPath>
<clipPath id="clip3">
  <path d="M 133 93.785156 L 241 93.785156 L 241 244 L 133 244 Z M 133 93.785156 "/>
</clipPath>
<filter id="alpha" filterUnits="objectBoundingBox" x="0%" y="0%" width="100%" height="100%">
  <feColorMatrix type="matrix" in="SourceGraphic" values="0 0 0 0 1 0 0 0 0 1 0 0 0 0 1 0 0 0 1 0"/>
</filter>
<mask id="mask0">
  <g filter="url(#alpha)">
<rect x="0" y="0" width="375" height="374.999991" style="fill:rgb(0%,0%,0%);fill-opacity:0.4;stroke:none;"/>
  </g>
</mask>
<clipPath id="clip5">
  <path d="M 1 0.785156 L 107.960938 0.785156 L 107.960938 150.601562 L 1 150.601562 Z M 1 0.785156 "/>
</clipPath>
<clipPath id="clip4">
  <rect x="0" y="0" width="108" height="151"/>
</clipPath>
<g id="surface5" clip-path="url(#clip4)">
<g clip-path="url(#clip5)" clip-rule="nonzero">
<path style=" stroke:none;fill-rule:nonzero;fill:rgb(97.648621%,96.859741%,86.268616%);fill-opacity:1;" d="M 98.574219 0.628906 C 98.574219 0.628906 72.765625 16.304688 54.488281 16.304688 C 36.214844 16.304688 10.28125 0.628906 10.28125 0.628906 C 5.300781 0.628906 1.128906 5.191406 1.128906 10.78125 L 1.128906 114.746094 C 1.128906 115.457031 1.285156 116.140625 1.410156 116.792969 C 3.683594 135.605469 26.59375 150.382812 54.457031 150.382812 C 82.320312 150.382812 105.171875 135.605469 107.445312 116.824219 C 107.570312 116.171875 107.632812 115.457031 107.632812 114.773438 L 107.632812 10.75 C 107.601562 5.191406 103.554688 0.628906 98.574219 0.628906 Z M 98.574219 0.628906 "/>
</g>
</g>
<mask id="mask1">
  <g filter="url(#alpha)">
<rect x="0" y="0" width="375" height="374.999991" style="fill:rgb(0%,0%,0%);fill-opacity:0.498;stroke:none;"/>
  </g>
</mask>
<clipPath id="clip7">
  <path d="M 0.121094 0.238281 L 92.761719 0.238281 L 92.761719 61.921875 L 0.121094 61.921875 Z M 0.121094 0.238281 "/>
</clipPath>
<clipPath id="clip6">
  <rect x="0" y="0" width="93" height="62"/>
</clipPath>
<g id="surface8" clip-path="url(#clip6)">
<g clip-path="url(#clip7)" clip-rule="nonzero">
<path style=" stroke:none;fill-rule:nonzero;fill:rgb(97.648621%,96.859741%,86.268616%);fill-opacity:1;" d="M 92.566406 30.976562 C 92.566406 31.972656 92.492188 32.96875 92.34375 33.960938 C 92.195312 34.953125 91.972656 35.9375 91.679688 36.914062 C 91.382812 37.894531 91.015625 38.859375 90.578125 39.816406 C 90.136719 40.769531 89.628906 41.707031 89.050781 42.628906 C 88.472656 43.550781 87.828125 44.449219 87.113281 45.332031 C 86.402344 46.210938 85.625 47.0625 84.785156 47.894531 C 83.945312 48.722656 83.042969 49.523438 82.085938 50.292969 C 81.125 51.066406 80.113281 51.804688 79.042969 52.507812 C 77.972656 53.214844 76.855469 53.882812 75.6875 54.515625 C 74.515625 55.148438 73.304688 55.742188 72.046875 56.296875 C 70.789062 56.851562 69.492188 57.363281 68.160156 57.832031 C 66.828125 58.300781 65.460938 58.726562 64.0625 59.109375 C 62.667969 59.492188 61.246094 59.828125 59.796875 60.117188 C 58.351562 60.40625 56.886719 60.648438 55.402344 60.84375 C 53.921875 61.039062 52.425781 61.183594 50.921875 61.28125 C 49.417969 61.378906 47.910156 61.429688 46.394531 61.429688 C 44.882812 61.429688 43.375 61.378906 41.871094 61.28125 C 40.367188 61.183594 38.871094 61.039062 37.390625 60.84375 C 35.90625 60.648438 34.441406 60.40625 32.996094 60.117188 C 31.546875 59.828125 30.125 59.492188 28.726562 59.109375 C 27.332031 58.726562 25.964844 58.300781 24.632812 57.832031 C 23.300781 57.363281 22.003906 56.851562 20.746094 56.296875 C 19.488281 55.742188 18.277344 55.148438 17.105469 54.515625 C 15.9375 53.882812 14.820312 53.214844 13.75 52.507812 C 12.679688 51.804688 11.667969 51.066406 10.707031 50.292969 C 9.75 49.523438 8.847656 48.722656 8.007812 47.894531 C 7.167969 47.0625 6.390625 46.210938 5.679688 45.332031 C 4.964844 44.449219 4.320312 43.550781 3.742188 42.628906 C 3.164062 41.707031 2.65625 40.769531 2.214844 39.816406 C 1.777344 38.859375 1.410156 37.894531 1.113281 36.914062 C 0.820312 35.9375 0.597656 34.953125 0.449219 33.960938 C 0.300781 32.96875 0.226562 31.972656 0.226562 30.976562 C 0.226562 29.976562 0.300781 28.980469 0.449219 27.988281 C 0.597656 26.996094 0.820312 26.011719 1.113281 25.035156 C 1.410156 24.054688 1.777344 23.089844 2.214844 22.132812 C 2.65625 21.179688 3.164062 20.242188 3.742188 19.320312 C 4.320312 18.398438 4.964844 17.5 5.679688 16.617188 C 6.390625 15.738281 7.167969 14.886719 8.007812 14.054688 C 8.847656 13.226562 9.75 12.425781 10.707031 11.65625 C 11.667969 10.882812 12.679688 10.144531 13.75 9.441406 C 14.820312 8.734375 15.9375 8.066406 17.105469 7.433594 C 18.277344 6.800781 19.488281 6.207031 20.746094 5.652344 C 22.003906 5.097656 23.300781 4.585938 24.632812 4.117188 C 25.964844 3.648438 27.332031 3.222656 28.726562 2.839844 C 30.125 2.457031 31.546875 2.121094 32.996094 1.832031 C 34.441406 1.542969 35.90625 1.300781 37.390625 1.105469 C 38.871094 0.910156 40.367188 0.765625 41.871094 0.667969 C 43.375 0.570312 44.882812 0.519531 46.394531 0.519531 C 47.910156 0.519531 49.417969 0.570312 50.921875 0.667969 C 52.425781 0.765625 53.921875 0.910156 55.402344 1.105469 C 56.886719 1.300781 58.351562 1.542969 59.796875 1.832031 C 61.246094 2.121094 62.667969 2.457031 64.0625 2.839844 C 65.460938 3.222656 66.828125 3.648438 68.160156 4.117188 C 69.492188 4.585938 70.789062 5.097656 72.046875 5.652344 C 73.304688 6.207031 74.515625 6.800781 75.6875 7.433594 C 76.855469 8.066406 77.972656 8.734375 79.042969 9.441406 C 80.113281 10.144531 81.125 10.882812 82.085938 11.65625 C 83.042969 12.425781 83.945312 13.226562 84.785156 14.054688 C 85.625 14.886719 86.402344 15.738281 87.113281 16.617188 C 87.828125 17.5 88.472656 18.398438 89.050781 19.320312 C 89.628906 20.242188 90.136719 21.179688 90.578125 22.132812 C 91.015625 23.089844 91.382812 24.054688 91.679688 25.035156 C 91.972656 26.011719 92.195312 26.996094 92.34375 27.988281 C 92.492188 28.980469 92.566406 29.976562 92.566406 30.976562 Z M 92.566406 30.976562 "/>
</g>
</g>
<clipPath id="clip8">
  <path d="M 134 93.785156 L 241 93.785156 L 241 162 L 134 162 Z M 134 93.785156 "/>
</clipPath>
</defs>
<g id="surface1">
<path style=" stroke:none;fill-rule:nonzero;fill:rgb(76.858521%,23.529053%,11.759949%);fill-opacity:1;" d="M 187.5 29.375 C 185.179688 29.375 182.859375 29.433594 180.542969 29.546875 C 178.226562 29.660156 175.910156 29.832031 173.601562 30.058594 C 171.292969 30.285156 168.992188 30.570312 166.695312 30.910156 C 164.398438 31.25 162.113281 31.648438 159.839844 32.101562 C 157.5625 32.550781 155.300781 33.0625 153.046875 33.625 C 150.796875 34.1875 148.5625 34.808594 146.339844 35.480469 C 144.121094 36.15625 141.917969 36.882812 139.734375 37.664062 C 137.546875 38.445312 135.382812 39.28125 133.238281 40.167969 C 131.097656 41.054688 128.976562 41.996094 126.878906 42.988281 C 124.78125 43.980469 122.707031 45.023438 120.660156 46.117188 C 118.613281 47.210938 116.597656 48.355469 114.605469 49.546875 C 112.617188 50.742188 110.65625 51.980469 108.726562 53.269531 C 106.796875 54.558594 104.902344 55.894531 103.035156 57.277344 C 101.171875 58.660156 99.34375 60.089844 97.550781 61.558594 C 95.757812 63.03125 94 64.546875 92.28125 66.105469 C 90.5625 67.664062 88.882812 69.261719 87.242188 70.90625 C 85.597656 72.546875 84 74.226562 82.441406 75.945312 C 80.882812 77.664062 79.367188 79.421875 77.894531 81.214844 C 76.425781 83.007812 74.996094 84.835938 73.613281 86.699219 C 72.230469 88.566406 70.894531 90.460938 69.605469 92.390625 C 68.316406 94.320312 67.078125 96.28125 65.882812 98.269531 C 64.691406 100.261719 63.546875 102.277344 62.453125 104.324219 C 61.359375 106.371094 60.316406 108.445312 59.324219 110.542969 C 58.332031 112.640625 57.390625 114.761719 56.503906 116.902344 C 55.617188 119.046875 54.78125 121.210938 54 123.398438 C 53.21875 125.582031 52.492188 127.785156 51.816406 130.003906 C 51.144531 132.226562 50.523438 134.460938 49.960938 136.710938 C 49.398438 138.964844 48.890625 141.226562 48.4375 143.503906 C 47.984375 145.777344 47.585938 148.0625 47.246094 150.359375 C 46.90625 152.65625 46.621094 154.957031 46.394531 157.265625 C 46.167969 159.574219 45.996094 161.890625 45.882812 164.207031 C 45.769531 166.523438 45.710938 168.84375 45.710938 171.164062 C 45.710938 173.484375 45.769531 175.804688 45.882812 178.121094 C 45.996094 180.4375 46.167969 182.753906 46.394531 185.0625 C 46.621094 187.371094 46.90625 189.671875 47.246094 191.96875 C 47.585938 194.265625 47.984375 196.550781 48.4375 198.824219 C 48.890625 201.101562 49.398438 203.363281 49.960938 205.617188 C 50.523438 207.867188 51.144531 210.101562 51.816406 212.324219 C 52.492188 214.542969 53.21875 216.746094 54 218.929688 C 54.78125 221.117188 55.617188 223.28125 56.503906 225.425781 C 57.390625 227.566406 58.332031 229.6875 59.324219 231.785156 C 60.316406 233.882812 61.359375 235.957031 62.453125 238.003906 C 63.546875 240.050781 64.691406 242.066406 65.882812 244.058594 C 67.078125 246.046875 68.316406 248.007812 69.605469 249.9375 C 70.894531 251.867188 72.230469 253.761719 73.613281 255.628906 C 74.996094 257.492188 76.425781 259.320312 77.894531 261.113281 C 79.367188 262.90625 80.882812 264.664062 82.441406 266.382812 C 84 268.101562 85.597656 269.78125 87.242188 271.421875 C 88.882812 273.0625 90.5625 274.664062 92.28125 276.222656 C 94 277.78125 95.757812 279.296875 97.550781 280.769531 C 99.34375 282.238281 101.171875 283.667969 103.035156 285.050781 C 104.902344 286.433594 106.796875 287.765625 108.726562 289.058594 C 110.65625 290.347656 112.617188 291.585938 114.605469 292.78125 C 116.597656 293.972656 118.613281 295.117188 120.660156 296.210938 C 122.707031 297.304688 124.78125 298.347656 126.878906 299.339844 C 128.976562 300.332031 131.097656 301.269531 133.238281 302.160156 C 135.382812 303.046875 137.546875 303.882812 139.734375 304.664062 C 141.917969 305.445312 144.121094 306.171875 146.339844 306.847656 C 148.5625 307.519531 150.796875 308.140625 153.046875 308.703125 C 155.300781 309.265625 157.5625 309.773438 159.839844 310.226562 C 162.113281 310.679688 164.398438 311.078125 166.695312 311.417969 C 168.992188 311.757812 171.292969 312.042969 173.601562 312.269531 C 175.910156 312.496094 178.226562 312.667969 180.542969 312.78125 C 182.859375 312.894531 185.179688 312.953125 187.5 312.953125 C 189.820312 312.953125 192.140625 312.894531 194.457031 312.78125 C 196.773438 312.667969 199.089844 312.496094 201.398438 312.269531 C 203.707031 312.042969 206.007812 311.757812 208.304688 311.417969 C 210.601562 311.078125 212.886719 310.679688 215.160156 310.226562 C 217.4375 309.773438 219.699219 309.265625 221.953125 308.703125 C 224.203125 308.140625 226.4375 307.519531 228.660156 306.847656 C 230.878906 306.171875 233.082031 305.445312 235.265625 304.664062 C 237.453125 303.882812 239.617188 303.046875 241.761719 302.160156 C 243.902344 301.269531 246.023438 300.332031 248.121094 299.339844 C 250.21875 298.347656 252.292969 297.304688 254.339844 296.210938 C 256.386719 295.117188 258.402344 293.972656 260.394531 292.78125 C 262.382812 291.585938 264.34375 290.347656 266.273438 289.058594 C 268.203125 287.765625 270.097656 286.433594 271.964844 285.050781 C 273.828125 283.667969 275.65625 282.238281 277.449219 280.769531 C 279.242188 279.296875 281 277.78125 282.71875 276.222656 C 284.4375 274.664062 286.117188 273.0625 287.757812 271.421875 C 289.398438 269.78125 291 268.101562 292.558594 266.382812 C 294.117188 264.664062 295.632812 262.90625 297.105469 261.113281 C 298.574219 259.320312 300.003906 257.492188 301.386719 255.628906 C 302.769531 253.761719 304.105469 251.867188 305.394531 249.9375 C 306.683594 248.007812 307.921875 246.046875 309.117188 244.058594 C 310.308594 242.066406 311.453125 240.050781 312.546875 238.003906 C 313.640625 235.957031 314.683594 233.882812 315.675781 231.785156 C 316.667969 229.6875 317.605469 227.566406 318.496094 225.425781 C 319.382812 223.28125 320.21875 221.117188 321 218.929688 C 321.78125 216.746094 322.507812 214.542969 323.183594 212.324219 C 323.855469 210.101562 324.476562 207.867188 325.039062 205.617188 C 325.601562 203.363281 326.109375 201.101562 326.5625 198.824219 C 327.015625 196.550781 327.414062 194.265625 327.753906 191.96875 C 328.09375 189.671875 328.378906 187.371094 328.605469 185.0625 C 328.832031 182.753906 329.003906 180.4375 329.117188 178.121094 C 329.230469 175.804688 329.289062 173.484375 329.289062 171.164062 C 329.289062 168.84375 329.230469 166.523438 329.117188 164.207031 C 329.003906 161.890625 328.832031 159.574219 328.605469 157.265625 C 328.378906 154.957031 328.09375 152.65625 327.753906 150.359375 C 327.414062 148.0625 327.015625 145.777344 326.5625 143.503906 C 326.109375 141.226562 325.601562 138.964844 325.039062 136.710938 C 324.476562 134.460938 323.855469 132.226562 323.183594 130.003906 C 322.507812 127.785156 321.78125 125.582031 321 123.398438 C 320.21875 121.210938 319.382812 119.046875 318.496094 116.902344 C 317.605469 114.761719 316.667969 112.640625 315.675781 110.542969 C 314.683594 108.445312 313.640625 106.371094 312.546875 104.324219 C 311.453125 102.277344 310.308594 100.261719 309.117188 98.269531 C 307.921875 96.28125 306.683594 94.320312 305.394531 92.390625 C 304.101562 90.460938 302.769531 88.566406 301.386719 86.699219 C 300.003906 84.835938 298.574219 83.007812 297.105469 81.214844 C 295.632812 79.421875 294.117188 77.664062 292.558594 75.945312 C 291 74.226562 289.398438 72.546875 287.757812 70.90625 C 286.117188 69.261719 284.4375 67.664062 282.71875 66.105469 C 281 64.546875 279.242188 63.03125 277.449219 61.558594 C 275.65625 60.089844 273.828125 58.660156 271.964844 57.277344 C 270.097656 55.894531 268.203125 54.558594 266.273438 53.269531 C 264.34375 51.980469 262.382812 50.742188 260.394531 49.546875 C 258.402344 48.355469 256.386719 47.210938 254.339844 46.117188 C 252.292969 45.023438 250.21875 43.980469 248.121094 42.988281 C 246.023438 41.996094 243.902344 41.054688 241.761719 40.167969 C 239.617188 39.28125 237.453125 38.445312 235.265625 37.664062 C 233.082031 36.882812 230.878906 36.15625 228.660156 35.480469 C 226.4375 34.808594 224.203125 34.1875 221.953125 33.625 C 219.699219 33.0625 217.4375 32.550781 215.160156 32.101562 C 212.886719 31.648438 210.601562 31.25 208.304688 30.910156 C 206.007812 30.570312 203.707031 30.285156 201.398438 30.058594 C 199.089844 29.832031 196.773438 29.660156 194.457031 29.546875 C 192.140625 29.433594 189.820312 29.375 187.5 29.375 Z M 187.5 29.375 "/>
<g clip-path="url(#clip1)" clip-rule="nonzero">
<path style=" stroke:none;fill-rule:nonzero;fill:rgb(97.648621%,96.859741%,86.268616%);fill-opacity:1;" d="M 187.25 37.5 C 113.609375 37.5 53.75 97.414062 53.75 171 C 53.75 244.636719 113.609375 304.5 187.25 304.5 C 260.835938 304.5 320.75 244.636719 320.75 171 C 320.75 97.414062 260.835938 37.5 187.25 37.5 Z M 187.25 294.085938 C 119.378906 294.085938 64.160156 238.871094 64.160156 171 C 64.160156 103.128906 119.378906 47.914062 187.25 47.914062 C 255.121094 47.914062 310.335938 103.128906 310.335938 171 C 310.335938 238.871094 255.121094 294.085938 187.25 294.085938 Z M 187.25 294.085938 "/>
</g>
<path style=" stroke:none;fill-rule:nonzero;fill:rgb(97.648621%,96.859741%,86.268616%);fill-opacity:1;" d="M 187.25 54.855469 C 123.222656 54.855469 71.105469 106.972656 71.105469 171 C 71.105469 235.027344 123.222656 287.144531 187.25 287.144531 C 251.277344 287.144531 303.394531 235.027344 303.394531 171 C 303.394531 106.972656 251.277344 54.855469 187.25 54.855469 Z M 187.25 54.855469 "/>
<path style=" stroke:none;fill-rule:nonzero;fill:rgb(46.269226%,23.529053%,0%);fill-opacity:1;" d="M 223.820312 220.90625 C 241.941406 220.90625 256.601562 198.898438 256.601562 171.734375 C 256.601562 144.570312 241.941406 122.5625 223.820312 122.5625 C 205.703125 122.5625 209.15625 144.570312 209.15625 171.734375 C 209.15625 198.898438 205.703125 220.90625 223.820312 220.90625 Z M 223.820312 220.90625 "/>
<path style=" stroke:none;fill-rule:nonzero;fill:rgb(46.269226%,23.529053%,0%);fill-opacity:1;" d="M 151.003906 220.90625 C 132.882812 220.90625 118.222656 198.898438 118.222656 171.734375 C 118.222656 144.570312 132.914062 122.5625 151.003906 122.5625 C 169.089844 122.5625 165.667969 144.570312 165.667969 171.734375 C 165.636719 198.867188 169.089844 220.90625 151.003906 220.90625 Z M 151.003906 220.90625 "/>
<g clip-path="url(#clip2)" clip-rule="nonzero">
<path style=" stroke:none;fill-rule:nonzero;fill:rgb(46.269226%,23.529053%,0%);fill-opacity:1;" d="M 231.574219 93.628906 C 231.574219 93.628906 205.765625 109.304688 187.488281 109.304688 C 169.214844 109.304688 143.28125 93.628906 143.28125 93.628906 C 138.300781 93.628906 134.128906 98.191406 134.128906 103.78125 L 134.128906 207.746094 C 134.128906 208.457031 134.285156 209.140625 134.410156 209.792969 C 136.683594 228.605469 159.59375 243.382812 187.457031 243.382812 C 215.320312 243.382812 238.171875 228.605469 240.445312 209.824219 C 240.570312 209.171875 240.632812 208.457031 240.632812 207.773438 L 240.632812 103.75 C 240.601562 98.191406 236.554688 93.628906 231.574219 93.628906 Z M 231.574219 93.628906 "/>
</g>
<g clip-path="url(#clip3)" clip-rule="nonzero">
<use xlink:href="#surface5" transform="matrix(1,0,0,1,133,93)" mask="url(#mask0)"/>
</g>
<use xlink:href="#surface8" transform="matrix(1,0,0,1,141,114)" mask="url(#mask1)"/>
<path style=" stroke:none;fill-rule:nonzero;fill:rgb(46.269226%,23.529053%,0%);fill-opacity:1;" d="M 182.105469 244.65625 C 182.105469 240.527344 178.898438 237.050781 174.757812 237.050781 C 170.617188 237.050781 167.410156 240.277344 167.410156 244.40625 L 167.410156 247.914062 L 182.074219 247.914062 Z M 182.105469 244.65625 "/>
<path style=" stroke:none;fill-rule:nonzero;fill:rgb(46.269226%,23.529053%,0%);fill-opacity:1;" d="M 207.351562 244.65625 C 207.351562 240.527344 204.457031 237.050781 200.316406 237.050781 C 196.175781 237.050781 193.28125 240.277344 193.28125 244.40625 L 193.28125 247.914062 L 207.351562 247.914062 Z M 207.351562 244.65625 "/>
<path style=" stroke:none;fill-rule:nonzero;fill:rgb(46.269226%,23.529053%,0%);fill-opacity:1;" d="M 166.445312 149.195312 C 166.445312 149.472656 166.417969 149.746094 166.363281 150.015625 C 166.308594 150.285156 166.230469 150.546875 166.125 150.800781 C 166.019531 151.054688 165.890625 151.296875 165.734375 151.523438 C 165.582031 151.753906 165.410156 151.964844 165.214844 152.160156 C 165.019531 152.355469 164.804688 152.527344 164.578125 152.679688 C 164.347656 152.835938 164.105469 152.964844 163.851562 153.070312 C 163.59375 153.171875 163.332031 153.253906 163.0625 153.308594 C 162.789062 153.359375 162.519531 153.386719 162.242188 153.386719 C 161.964844 153.386719 161.691406 153.359375 161.421875 153.308594 C 161.152344 153.253906 160.886719 153.171875 160.632812 153.070312 C 160.378906 152.964844 160.136719 152.835938 159.90625 152.679688 C 159.675781 152.527344 159.464844 152.355469 159.269531 152.160156 C 159.074219 151.964844 158.902344 151.753906 158.746094 151.523438 C 158.59375 151.296875 158.464844 151.054688 158.359375 150.800781 C 158.253906 150.546875 158.171875 150.285156 158.121094 150.015625 C 158.066406 149.746094 158.039062 149.472656 158.039062 149.195312 C 158.039062 148.921875 158.066406 148.648438 158.121094 148.378906 C 158.171875 148.109375 158.253906 147.847656 158.359375 147.59375 C 158.464844 147.339844 158.59375 147.097656 158.746094 146.867188 C 158.902344 146.640625 159.074219 146.429688 159.269531 146.234375 C 159.464844 146.039062 159.675781 145.863281 159.90625 145.710938 C 160.136719 145.558594 160.378906 145.429688 160.632812 145.324219 C 160.886719 145.21875 161.152344 145.140625 161.421875 145.085938 C 161.691406 145.03125 161.964844 145.003906 162.242188 145.003906 C 162.519531 145.003906 162.789062 145.03125 163.0625 145.085938 C 163.332031 145.140625 163.59375 145.21875 163.851562 145.324219 C 164.105469 145.429688 164.347656 145.558594 164.578125 145.710938 C 164.804688 145.863281 165.019531 146.039062 165.214844 146.234375 C 165.410156 146.429688 165.582031 146.640625 165.734375 146.867188 C 165.890625 147.097656 166.019531 147.339844 166.125 147.59375 C 166.230469 147.847656 166.308594 148.109375 166.363281 148.378906 C 166.417969 148.648438 166.445312 148.921875 166.445312 149.195312 Z M 166.445312 149.195312 "/>
<path style=" stroke:none;fill-rule:nonzero;fill:rgb(46.269226%,23.529053%,0%);fill-opacity:1;" d="M 216.785156 149.195312 C 216.785156 149.472656 216.757812 149.746094 216.703125 150.015625 C 216.652344 150.285156 216.570312 150.546875 216.464844 150.800781 C 216.359375 151.054688 216.230469 151.296875 216.078125 151.523438 C 215.921875 151.753906 215.75 151.964844 215.554688 152.160156 C 215.359375 152.355469 215.148438 152.527344 214.917969 152.679688 C 214.6875 152.835938 214.445312 152.964844 214.191406 153.070312 C 213.9375 153.171875 213.671875 153.253906 213.402344 153.308594 C 213.132812 153.359375 212.859375 153.386719 212.582031 153.386719 C 212.304688 153.386719 212.03125 153.359375 211.761719 153.308594 C 211.492188 153.253906 211.230469 153.171875 210.972656 153.070312 C 210.71875 152.964844 210.476562 152.835938 210.246094 152.679688 C 210.019531 152.527344 209.804688 152.355469 209.609375 152.160156 C 209.414062 151.964844 209.242188 151.753906 209.085938 151.523438 C 208.933594 151.296875 208.804688 151.054688 208.699219 150.800781 C 208.59375 150.546875 208.515625 150.285156 208.460938 150.015625 C 208.40625 149.746094 208.378906 149.472656 208.378906 149.195312 C 208.378906 148.921875 208.40625 148.648438 208.460938 148.378906 C 208.515625 148.109375 208.59375 147.847656 208.699219 147.59375 C 208.804688 147.339844 208.933594 147.097656 209.085938 146.867188 C 209.242188 146.640625 209.414062 146.429688 209.609375 146.234375 C 209.804688 146.039062 210.019531 145.863281 210.246094 145.710938 C 210.476562 145.558594 210.71875 145.429688 210.972656 145.324219 C 211.230469 145.21875 211.492188 145.140625 211.761719 145.085938 C 212.03125 145.03125 212.304688 145.003906 212.582031 145.003906 C 212.859375 145.003906 213.132812 145.03125 213.402344 145.085938 C 213.671875 145.140625 213.9375 145.21875 214.191406 145.324219 C 214.445312 145.429688 214.6875 145.558594 214.917969 145.710938 C 215.148438 145.863281 215.359375 146.039062 215.554688 146.234375 C 215.75 146.429688 215.921875 146.640625 216.078125 146.867188 C 216.230469 147.097656 216.359375 147.339844 216.464844 147.59375 C 216.570312 147.847656 216.652344 148.109375 216.703125 148.378906 C 216.757812 148.648438 216.785156 148.921875 216.785156 149.195312 Z M 216.785156 149.195312 "/>
<g clip-path="url(#clip8)" clip-rule="nonzero">
<path style=" stroke:none;fill-rule:nonzero;fill:rgb(46.269226%,23.529053%,0%);fill-opacity:1;" d="M 240.570312 103.75 C 240.570312 98.160156 236.492188 93.597656 231.511719 93.597656 C 231.511719 93.597656 205.671875 109.273438 187.394531 109.273438 C 169.121094 109.273438 143.28125 93.628906 143.28125 93.628906 C 138.300781 93.628906 134.222656 98.191406 134.222656 103.78125 C 134.222656 103.78125 174.664062 161.117188 187.394531 161.117188 C 200.128906 161.085938 240.570312 103.75 240.570312 103.75 Z M 240.570312 103.75 "/>
</g>
<path style=" stroke:none;fill-rule:nonzero;fill:rgb(46.269226%,23.529053%,0%);fill-opacity:1;" d="M 176.75 206.097656 C 170.085938 206.097656 164.671875 200.140625 164.671875 192.78125 C 164.671875 191.914062 165.355469 191.230469 166.226562 191.230469 C 167.097656 191.230469 167.78125 191.914062 167.78125 192.78125 C 167.78125 198.398438 171.800781 202.996094 176.75 202.996094 C 181.699219 202.996094 185.714844 198.398438 185.714844 192.78125 C 185.714844 191.914062 186.398438 191.230469 187.273438 191.230469 C 188.144531 191.230469 188.828125 191.914062 188.828125 192.78125 C 188.828125 200.109375 183.410156 206.097656 176.75 206.097656 Z M 176.75 206.097656 "/>
<path style=" stroke:none;fill-rule:nonzero;fill:rgb(46.269226%,23.529053%,0%);fill-opacity:1;" d="M 218.746094 194.519531 C 212.085938 194.519531 206.667969 188.558594 206.667969 181.203125 C 206.667969 180.332031 207.351562 179.648438 208.222656 179.648438 C 209.09375 179.648438 209.78125 180.332031 209.78125 181.203125 C 209.78125 186.820312 213.796875 191.414062 218.746094 191.414062 C 223.695312 191.414062 227.710938 186.820312 227.710938 181.203125 C 227.710938 180.332031 228.398438 179.648438 229.269531 179.648438 C 230.140625 179.648438 230.824219 180.332031 230.824219 181.203125 C 230.824219 188.558594 225.410156 194.519531 218.746094 194.519531 Z M 218.746094 194.519531 "/>
<path style=" stroke:none;fill-rule:nonzero;fill:rgb(46.269226%,23.529053%,0%);fill-opacity:1;" d="M 193.683594 228.296875 C 187.023438 228.296875 181.605469 222.335938 181.605469 214.976562 C 181.605469 214.109375 182.289062 213.425781 183.164062 213.425781 C 184.035156 213.425781 184.71875 214.109375 184.71875 214.976562 C 184.71875 220.597656 188.734375 225.191406 193.683594 225.191406 C 198.636719 225.191406 202.652344 220.597656 202.652344 214.976562 C 202.652344 214.109375 203.335938 213.425781 204.207031 213.425781 C 205.078125 213.425781 205.765625 214.109375 205.765625 214.976562 C 205.765625 222.304688 200.347656 228.296875 193.683594 228.296875 Z M 193.683594 228.296875 "/>
<path style=" stroke:none;fill-rule:nonzero;fill:rgb(46.269226%,23.529053%,0%);fill-opacity:1;" d="M 214.667969 228.296875 C 208.003906 228.296875 202.589844 222.335938 202.589844 214.976562 C 202.589844 214.109375 203.273438 213.425781 204.144531 213.425781 C 205.015625 213.425781 205.703125 214.109375 205.703125 214.976562 C 205.703125 220.597656 209.71875 225.191406 214.667969 225.191406 C 219.617188 225.191406 223.632812 220.597656 223.632812 214.976562 C 223.632812 214.109375 224.320312 213.425781 225.191406 213.425781 C 226.0625 213.425781 226.746094 214.109375 226.746094 214.976562 C 226.777344 222.304688 221.332031 228.296875 214.667969 228.296875 Z M 214.667969 228.296875 "/>
<path style=" stroke:none;fill-rule:nonzero;fill:rgb(46.269226%,23.529053%,0%);fill-opacity:1;" d="M 155.113281 206.097656 C 148.449219 206.097656 143.03125 200.140625 143.03125 192.78125 C 143.03125 191.914062 143.71875 191.230469 144.589844 191.230469 C 145.460938 191.230469 146.144531 191.914062 146.144531 192.78125 C 146.144531 198.398438 150.164062 202.996094 155.113281 202.996094 C 160.0625 202.996094 164.078125 198.398438 164.078125 192.78125 C 164.078125 191.914062 164.761719 191.230469 165.636719 191.230469 C 166.507812 191.230469 167.191406 191.914062 167.191406 192.78125 C 167.191406 200.109375 161.773438 206.097656 155.113281 206.097656 Z M 155.113281 206.097656 "/>
<path style=" stroke:none;fill-rule:nonzero;fill:rgb(46.269226%,23.529053%,0%);fill-opacity:1;" d="M 170.523438 148.917969 C 177.433594 156.335938 183.660156 165.960938 187.425781 165.929688 C 191.132812 165.898438 197.640625 155.746094 204.332031 148.917969 Z M 170.523438 148.917969 "/>
</g>
</svg>
